<svg xmlns="http://www.w3.org/2000/svg" xmlns:xlink="http://www.w3.org/1999/xlink" width="1080" zoomAndPan="magnify" viewBox="0 0 810 809.999993" height="1080" preserveAspectRatio="xMidYMid meet" version="1.0"><defs><clipPath id="c0bcfbac68"><path d="M 383 252.175781 L 580.953125 252.175781 L 580.953125 449 L 383 449 Z M 383 252.175781 " clip-rule="nonzero"/></clipPath></defs><path fill="#ffffff" d="M 729.289062 162.574219 L 253.203125 162.574219 C 252.378906 162.574219 251.554688 162.613281 250.730469 162.695312 C 249.910156 162.777344 249.09375 162.898438 248.285156 163.058594 C 247.472656 163.21875 246.671875 163.421875 245.882812 163.660156 C 245.09375 163.898438 244.316406 164.179688 243.550781 164.492188 C 242.789062 164.808594 242.042969 165.164062 241.316406 165.550781 C 240.585938 165.941406 239.878906 166.367188 239.191406 166.824219 C 238.503906 167.285156 237.84375 167.773438 237.203125 168.300781 C 236.566406 168.824219 235.953125 169.378906 235.371094 169.960938 C 234.785156 170.546875 234.230469 171.15625 233.707031 171.796875 C 233.183594 172.433594 232.691406 173.097656 232.234375 173.785156 C 231.773438 174.46875 231.347656 175.179688 230.960938 175.90625 C 230.570312 176.636719 230.21875 177.382812 229.902344 178.144531 C 229.585938 178.90625 229.308594 179.683594 229.066406 180.476562 C 228.828125 181.265625 228.628906 182.066406 228.464844 182.875 C 228.304688 183.6875 228.183594 184.503906 228.101562 185.324219 C 228.023438 186.144531 227.980469 186.96875 227.980469 187.796875 C 227.980469 188.621094 228.023438 189.445312 228.101562 190.269531 C 228.183594 191.089844 228.304688 191.90625 228.464844 192.71875 C 228.628906 193.527344 228.828125 194.328125 229.066406 195.117188 C 229.308594 195.910156 229.585938 196.6875 229.902344 197.449219 C 230.21875 198.210938 230.570312 198.957031 230.960938 199.6875 C 231.347656 200.414062 231.773438 201.121094 232.234375 201.808594 C 232.691406 202.496094 233.183594 203.160156 233.707031 203.796875 C 234.230469 204.4375 234.785156 205.046875 235.371094 205.632812 C 235.953125 206.214844 236.566406 206.769531 237.203125 207.292969 C 237.84375 207.816406 238.503906 208.308594 239.191406 208.769531 C 239.878906 209.226562 240.585938 209.652344 241.316406 210.039062 C 242.042969 210.429688 242.789062 210.78125 243.550781 211.097656 C 244.316406 211.414062 245.09375 211.691406 245.882812 211.933594 C 246.671875 212.171875 247.472656 212.375 248.285156 212.535156 C 249.09375 212.695312 249.910156 212.816406 250.730469 212.898438 C 251.554688 212.980469 252.378906 213.019531 253.203125 213.019531 L 729.289062 213.019531 C 729.871094 213.019531 730.449219 213.035156 731.03125 213.074219 C 731.609375 213.109375 732.1875 213.164062 732.765625 213.238281 C 733.339844 213.3125 733.914062 213.402344 734.484375 213.511719 C 735.054688 213.621094 735.625 213.75 736.1875 213.894531 C 736.75 214.042969 737.304688 214.203125 737.859375 214.386719 C 738.410156 214.566406 738.957031 214.765625 739.496094 214.980469 C 740.035156 215.199219 740.566406 215.429688 741.089844 215.679688 C 741.617188 215.929688 742.132812 216.199219 742.640625 216.480469 C 743.148438 216.761719 743.644531 217.0625 744.136719 217.375 C 744.625 217.691406 745.101562 218.019531 745.570312 218.367188 C 746.035156 218.710938 746.492188 219.070312 746.9375 219.445312 C 747.382812 219.820312 747.816406 220.207031 748.234375 220.609375 C 748.65625 221.007812 749.0625 221.425781 749.457031 221.851562 C 749.851562 222.277344 750.230469 222.71875 750.59375 223.171875 C 750.960938 223.621094 751.3125 224.085938 751.648438 224.558594 C 751.984375 225.03125 752.304688 225.515625 752.609375 226.011719 C 752.917969 226.507812 753.207031 227.007812 753.480469 227.523438 C 753.753906 228.035156 754.007812 228.554688 754.25 229.085938 C 754.488281 229.613281 754.710938 230.152344 754.917969 230.695312 C 755.125 231.238281 755.3125 231.789062 755.484375 232.34375 C 755.65625 232.898438 755.808594 233.457031 755.945312 234.023438 C 756.078125 234.589844 756.195312 235.15625 756.296875 235.730469 C 756.394531 236.304688 756.476562 236.878906 756.539062 237.457031 C 756.601562 238.035156 756.644531 238.613281 756.671875 239.195312 C 756.695312 239.773438 756.703125 240.355469 756.691406 240.9375 C 756.679688 241.515625 756.652344 242.097656 756.601562 242.675781 C 756.554688 243.257812 756.488281 243.832031 756.402344 244.40625 C 756.316406 244.984375 756.214844 245.554688 756.09375 246.121094 C 755.972656 246.691406 755.832031 247.253906 755.675781 247.816406 C 755.519531 248.375 755.34375 248.929688 755.152344 249.476562 C 754.957031 250.023438 754.75 250.566406 754.523438 251.101562 C 754.292969 251.636719 754.050781 252.164062 753.789062 252.683594 C 724.964844 310.535156 683.800781 439.589844 663.25 480.664062 C 662.683594 481.796875 662.042969 482.882812 661.324219 483.925781 C 660.605469 484.96875 659.820312 485.957031 658.96875 486.890625 C 658.113281 487.828125 657.199219 488.695312 656.226562 489.503906 C 655.25 490.3125 654.222656 491.046875 653.148438 491.710938 C 652.070312 492.378906 650.953125 492.964844 649.796875 493.476562 C 648.636719 493.984375 647.449219 494.414062 646.230469 494.757812 C 645.015625 495.105469 643.777344 495.363281 642.527344 495.539062 C 641.273438 495.710938 640.011719 495.800781 638.746094 495.796875 L 288.257812 495.796875 C 286.890625 495.800781 285.53125 495.699219 284.179688 495.5 C 282.828125 495.296875 281.5 494.996094 280.191406 494.597656 C 278.886719 494.195312 277.617188 493.699219 276.386719 493.109375 C 275.152344 492.519531 273.972656 491.84375 272.839844 491.074219 C 271.710938 490.308594 270.640625 489.460938 269.636719 488.535156 C 268.632812 487.609375 267.703125 486.613281 266.847656 485.546875 C 265.992188 484.484375 265.222656 483.359375 264.535156 482.179688 C 263.847656 481 263.25 479.773438 262.746094 478.503906 C 262.746094 478.214844 183.90625 124.523438 183.90625 124.523438 C 183.511719 122.730469 183.074219 120.945312 182.601562 119.167969 C 182.128906 117.390625 181.621094 115.625 181.070312 113.871094 C 180.523438 112.117188 179.941406 110.375 179.320312 108.644531 C 178.699219 106.914062 178.039062 105.195312 177.347656 103.496094 C 176.652344 101.792969 175.925781 100.105469 175.160156 98.433594 C 174.394531 96.761719 173.59375 95.109375 172.757812 93.46875 C 171.925781 91.832031 171.054688 90.214844 170.152344 88.613281 C 169.25 87.011719 168.3125 85.429688 167.339844 83.871094 C 166.371094 82.308594 165.367188 80.769531 164.332031 79.25 C 163.296875 77.730469 162.230469 76.234375 161.132812 74.761719 C 160.035156 73.285156 158.902344 71.835938 157.742188 70.410156 C 156.585938 68.984375 155.394531 67.582031 154.175781 66.207031 C 152.957031 64.832031 151.707031 63.480469 150.433594 62.160156 C 149.15625 60.835938 147.851562 59.539062 146.523438 58.273438 C 145.191406 57.003906 143.832031 55.765625 142.449219 54.554688 C 141.066406 53.34375 139.660156 52.164062 138.226562 51.011719 C 136.792969 49.863281 135.335938 48.742188 133.855469 47.652344 C 132.375 46.5625 130.871094 45.503906 129.34375 44.480469 C 127.820312 43.453125 126.273438 42.460938 124.707031 41.5 C 123.140625 40.539062 121.550781 39.613281 119.945312 38.71875 C 118.339844 37.828125 116.714844 36.96875 115.070312 36.144531 C 113.429688 35.316406 111.769531 34.527344 110.09375 33.773438 C 108.417969 33.019531 106.726562 32.300781 105.019531 31.617188 C 103.3125 30.933594 101.589844 30.289062 99.859375 29.675781 C 98.125 29.066406 96.378906 28.492188 94.621094 27.957031 C 92.859375 27.421875 91.09375 26.921875 89.3125 26.460938 C 87.535156 26 85.746094 25.574219 83.949219 25.1875 C 82.152344 24.804688 80.347656 24.453125 78.535156 24.144531 C 76.722656 23.835938 74.90625 23.5625 73.082031 23.332031 C 71.257812 23.097656 69.429688 22.902344 67.597656 22.75 C 65.765625 22.59375 63.933594 22.476562 62.097656 22.398438 C 60.261719 22.320312 58.421875 22.28125 56.585938 22.28125 L 25.25 22.28125 C 24.414062 22.242188 23.574219 22.246094 22.738281 22.292969 C 21.902344 22.34375 21.070312 22.433594 20.242188 22.570312 C 19.414062 22.703125 18.59375 22.882812 17.785156 23.101562 C 16.976562 23.320312 16.179688 23.582031 15.398438 23.886719 C 14.617188 24.1875 13.851562 24.53125 13.105469 24.914062 C 12.359375 25.296875 11.636719 25.71875 10.933594 26.175781 C 10.230469 26.632812 9.554688 27.128906 8.902344 27.65625 C 8.253906 28.183594 7.628906 28.746094 7.039062 29.339844 C 6.445312 29.933594 5.886719 30.554688 5.355469 31.207031 C 4.828125 31.859375 4.335938 32.535156 3.878906 33.238281 C 3.421875 33.941406 3.003906 34.664062 2.621094 35.414062 C 2.238281 36.160156 1.898438 36.925781 1.59375 37.707031 C 1.292969 38.488281 1.03125 39.285156 0.8125 40.09375 C 0.59375 40.902344 0.417969 41.722656 0.28125 42.550781 C 0.148438 43.378906 0.0585938 44.210938 0.0117188 45.046875 C -0.0351562 45.886719 -0.0390625 46.722656 0 47.558594 C 0 48.386719 0.0429688 49.210938 0.125 50.03125 C 0.210938 50.851562 0.332031 51.667969 0.496094 52.476562 C 0.65625 53.285156 0.859375 54.085938 1.097656 54.875 C 1.339844 55.664062 1.617188 56.441406 1.933594 57.203125 C 2.253906 57.964844 2.605469 58.710938 2.996094 59.4375 C 3.386719 60.167969 3.808594 60.875 4.269531 61.558594 C 4.726562 62.246094 5.21875 62.90625 5.742188 63.546875 C 6.265625 64.183594 6.820312 64.792969 7.40625 65.378906 C 7.988281 65.960938 8.597656 66.515625 9.238281 67.039062 C 9.875 67.5625 10.535156 68.054688 11.222656 68.515625 C 11.910156 68.972656 12.617188 69.398438 13.34375 69.789062 C 14.070312 70.175781 14.816406 70.53125 15.578125 70.847656 C 16.339844 71.164062 17.117188 71.441406 17.90625 71.683594 C 18.695312 71.925781 19.496094 72.125 20.304688 72.289062 C 21.113281 72.449219 21.929688 72.574219 22.753906 72.65625 C 23.574219 72.738281 24.398438 72.78125 25.222656 72.78125 L 56.585938 72.78125 C 58.839844 72.78125 61.085938 72.875 63.332031 73.066406 C 65.578125 73.253906 67.8125 73.539062 70.03125 73.917969 C 72.253906 74.296875 74.453125 74.765625 76.636719 75.332031 C 78.816406 75.894531 80.972656 76.550781 83.097656 77.296875 C 85.222656 78.042969 87.3125 78.878906 89.371094 79.800781 C 91.425781 80.722656 93.4375 81.730469 95.410156 82.824219 C 97.378906 83.917969 99.300781 85.089844 101.171875 86.347656 C 103.042969 87.601562 104.855469 88.933594 106.617188 90.34375 C 108.375 91.75 110.070312 93.230469 111.703125 94.785156 C 113.335938 96.335938 114.902344 97.953125 116.398438 99.636719 C 117.894531 101.320312 119.320312 103.066406 120.667969 104.871094 C 122.019531 106.675781 123.289062 108.535156 124.480469 110.445312 C 125.671875 112.359375 126.78125 114.316406 127.808594 116.320312 C 128.835938 118.328125 129.777344 120.375 130.628906 122.457031 C 131.484375 124.542969 132.25 126.660156 132.925781 128.8125 C 133.597656 130.960938 134.183594 133.136719 134.671875 135.332031 L 213.742188 490.550781 C 213.945312 491.359375 214.175781 492.222656 214.433594 493.03125 C 215.074219 494.953125 215.789062 496.847656 216.578125 498.714844 C 217.367188 500.578125 218.226562 502.410156 219.160156 504.210938 C 220.089844 506.007812 221.089844 507.769531 222.160156 509.492188 C 223.230469 511.210938 224.363281 512.886719 225.566406 514.519531 C 226.765625 516.152344 228.027344 517.734375 229.351562 519.269531 C 230.675781 520.800781 232.054688 522.28125 233.496094 523.707031 C 234.933594 525.132812 236.425781 526.5 237.972656 527.808594 C 239.519531 529.121094 241.113281 530.367188 242.757812 531.550781 C 244.402344 532.734375 246.089844 533.855469 247.820312 534.90625 C 249.550781 535.960938 251.320312 536.945312 253.125 537.859375 C 254.933594 538.773438 256.773438 539.617188 258.648438 540.386719 C 260.523438 541.15625 262.421875 541.855469 264.351562 542.476562 C 266.277344 543.101562 268.226562 543.644531 270.199219 544.117188 C 272.167969 544.585938 274.15625 544.980469 276.15625 545.296875 C 278.15625 545.609375 280.167969 545.847656 282.1875 546.003906 C 284.207031 546.164062 286.230469 546.242188 288.257812 546.242188 L 638.746094 546.242188 C 640.542969 546.242188 642.335938 546.179688 644.128906 546.054688 C 645.921875 545.933594 647.707031 545.746094 649.484375 545.5 C 651.265625 545.25 653.03125 544.941406 654.789062 544.570312 C 656.546875 544.199219 658.289062 543.769531 660.015625 543.277344 C 661.746094 542.789062 663.453125 542.238281 665.144531 541.628906 C 666.832031 541.019531 668.5 540.351562 670.144531 539.628906 C 671.785156 538.902344 673.402344 538.121094 674.992188 537.285156 C 676.582031 536.449219 678.140625 535.558594 679.667969 534.613281 C 681.195312 533.667969 682.6875 532.671875 684.148438 531.625 C 685.605469 530.578125 687.027344 529.480469 688.410156 528.335938 C 689.792969 527.1875 691.132812 525.996094 692.433594 524.757812 C 693.734375 523.515625 694.992188 522.234375 696.203125 520.910156 C 697.414062 519.582031 698.578125 518.214844 699.695312 516.808594 C 700.8125 515.402344 701.878906 513.960938 702.894531 512.480469 C 703.910156 511 704.875 509.484375 705.789062 507.9375 C 706.699219 506.390625 707.558594 504.8125 708.359375 503.207031 C 728.882812 462.128906 769.960938 333.136719 798.902344 275.226562 C 799.640625 273.75 800.332031 272.25 800.972656 270.730469 C 801.617188 269.210938 802.210938 267.671875 802.757812 266.117188 C 803.300781 264.558594 803.796875 262.984375 804.242188 261.394531 C 804.6875 259.804688 805.082031 258.203125 805.425781 256.589844 C 805.765625 254.976562 806.058594 253.351562 806.300781 251.722656 C 806.539062 250.089844 806.726562 248.449219 806.863281 246.804688 C 807 245.160156 807.082031 243.511719 807.113281 241.863281 C 807.144531 240.214844 807.121094 238.5625 807.046875 236.914062 C 806.972656 235.265625 806.847656 233.621094 806.667969 231.980469 C 806.492188 230.339844 806.261719 228.707031 805.976562 227.082031 C 805.695312 225.457031 805.363281 223.839844 804.976562 222.238281 C 804.589844 220.632812 804.15625 219.042969 803.667969 217.464844 C 803.183594 215.886719 802.648438 214.328125 802.0625 212.785156 C 801.476562 211.242188 800.839844 209.71875 800.160156 208.21875 C 799.476562 206.714844 798.746094 205.234375 797.96875 203.777344 C 797.195312 202.324219 796.371094 200.894531 795.503906 199.488281 C 794.636719 198.085938 793.726562 196.710938 792.769531 195.363281 C 791.816406 194.019531 790.820312 192.707031 789.78125 191.421875 C 788.742188 190.140625 787.664062 188.890625 786.546875 187.679688 C 785.429688 186.464844 784.273438 185.289062 783.078125 184.148438 C 781.886719 183.007812 780.660156 181.90625 779.398438 180.84375 C 778.132812 179.78125 776.839844 178.761719 775.511719 177.78125 C 774.183594 176.800781 772.824219 175.863281 771.4375 174.96875 C 770.050781 174.078125 768.636719 173.226562 767.195312 172.425781 C 765.753906 171.621094 764.289062 170.863281 762.796875 170.152344 C 761.308594 169.441406 759.796875 168.78125 758.265625 168.167969 C 756.734375 167.550781 755.1875 166.988281 753.617188 166.472656 C 752.050781 165.957031 750.46875 165.492188 748.871094 165.074219 C 747.273438 164.660156 745.664062 164.296875 744.046875 163.984375 C 742.425781 163.671875 740.796875 163.410156 739.160156 163.203125 C 737.523438 162.992188 735.878906 162.835938 734.234375 162.730469 C 732.585938 162.625 730.9375 162.574219 729.289062 162.574219 Z M 729.289062 162.574219 " fill-opacity="1" fill-rule="evenodd"/><path fill="#ffffff" d="M 315.667969 575.816406 C 313.984375 575.816406 312.296875 575.859375 310.613281 575.941406 C 308.929688 576.023438 307.246094 576.148438 305.566406 576.316406 C 303.890625 576.480469 302.214844 576.6875 300.546875 576.933594 C 298.878906 577.179688 297.21875 577.46875 295.5625 577.796875 C 293.910156 578.128906 292.265625 578.496094 290.628906 578.90625 C 288.992188 579.316406 287.367188 579.765625 285.753906 580.257812 C 284.140625 580.746094 282.539062 581.273438 280.949219 581.84375 C 279.363281 582.410156 277.789062 583.019531 276.230469 583.664062 C 274.671875 584.308594 273.132812 584.992188 271.605469 585.714844 C 270.082031 586.433594 268.574219 587.191406 267.089844 587.988281 C 265.601562 588.78125 264.132812 589.613281 262.6875 590.480469 C 261.242188 591.347656 259.816406 592.25 258.414062 593.1875 C 257.011719 594.125 255.632812 595.09375 254.277344 596.101562 C 252.921875 597.105469 251.59375 598.140625 250.289062 599.210938 C 248.988281 600.28125 247.710938 601.382812 246.460938 602.515625 C 245.210938 603.648438 243.988281 604.8125 242.796875 606.003906 C 241.605469 607.199219 240.441406 608.417969 239.308594 609.667969 C 238.175781 610.917969 237.074219 612.195312 236.007812 613.5 C 234.9375 614.800781 233.898438 616.132812 232.894531 617.488281 C 231.890625 618.839844 230.917969 620.21875 229.980469 621.621094 C 229.042969 623.023438 228.144531 624.449219 227.277344 625.894531 C 226.410156 627.34375 225.578125 628.808594 224.78125 630.296875 C 223.988281 631.785156 223.230469 633.292969 222.507812 634.816406 C 221.789062 636.339844 221.105469 637.882812 220.460938 639.441406 C 219.8125 641 219.207031 642.570312 218.640625 644.160156 C 218.070312 645.746094 217.542969 647.347656 217.054688 648.964844 C 216.5625 650.578125 216.113281 652.203125 215.703125 653.839844 C 215.292969 655.472656 214.925781 657.121094 214.597656 658.773438 C 214.265625 660.429688 213.980469 662.089844 213.730469 663.757812 C 213.484375 665.425781 213.277344 667.097656 213.113281 668.777344 C 212.949219 670.457031 212.824219 672.136719 212.742188 673.824219 C 212.660156 675.507812 212.617188 677.191406 212.617188 678.878906 C 212.617188 680.566406 212.660156 682.25 212.742188 683.9375 C 212.824219 685.621094 212.949219 687.300781 213.113281 688.980469 C 213.28125 690.660156 213.488281 692.332031 213.734375 694 C 213.980469 695.667969 214.269531 697.332031 214.601562 698.984375 C 214.929688 700.640625 215.296875 702.285156 215.707031 703.921875 C 216.117188 705.554688 216.570312 707.179688 217.058594 708.796875 C 217.546875 710.410156 218.078125 712.011719 218.644531 713.597656 C 219.214844 715.1875 219.820312 716.757812 220.464844 718.316406 C 221.113281 719.875 221.796875 721.417969 222.515625 722.941406 C 223.238281 724.464844 223.996094 725.972656 224.792969 727.460938 C 225.585938 728.945312 226.417969 730.414062 227.285156 731.859375 C 228.152344 733.304688 229.054688 734.730469 229.992188 736.132812 C 230.929688 737.535156 231.902344 738.914062 232.90625 740.269531 C 233.910156 741.625 234.949219 742.953125 236.019531 744.253906 C 237.089844 745.558594 238.191406 746.835938 239.324219 748.085938 C 240.457031 749.335938 241.617188 750.554688 242.8125 751.75 C 244.003906 752.941406 245.226562 754.101562 246.476562 755.234375 C 247.726562 756.367188 249 757.46875 250.304688 758.539062 C 251.609375 759.609375 252.9375 760.644531 254.292969 761.652344 C 255.648438 762.65625 257.027344 763.625 258.429688 764.5625 C 259.832031 765.5 261.257812 766.402344 262.703125 767.269531 C 264.152344 768.136719 265.617188 768.964844 267.105469 769.761719 C 268.59375 770.554688 270.097656 771.3125 271.625 772.035156 C 273.148438 772.753906 274.691406 773.4375 276.25 774.082031 C 277.808594 774.730469 279.378906 775.335938 280.96875 775.902344 C 282.554688 776.472656 284.15625 777 285.773438 777.488281 C 287.386719 777.976562 289.011719 778.429688 290.648438 778.835938 C 292.28125 779.246094 293.929688 779.617188 295.582031 779.945312 C 297.238281 780.273438 298.898438 780.5625 300.566406 780.808594 C 302.234375 781.054688 303.910156 781.261719 305.585938 781.425781 C 307.265625 781.59375 308.945312 781.714844 310.632812 781.796875 C 312.316406 781.878906 314 781.921875 315.6875 781.921875 C 317.375 781.921875 319.0625 781.878906 320.746094 781.796875 C 322.429688 781.714844 324.113281 781.589844 325.789062 781.421875 C 327.46875 781.257812 329.140625 781.050781 330.808594 780.804688 C 332.476562 780.554688 334.140625 780.265625 335.792969 779.9375 C 337.449219 779.609375 339.09375 779.238281 340.730469 778.828125 C 342.363281 778.417969 343.988281 777.96875 345.605469 777.476562 C 347.21875 776.988281 348.820312 776.457031 350.40625 775.890625 C 351.996094 775.320312 353.566406 774.714844 355.125 774.070312 C 356.683594 773.421875 358.226562 772.738281 359.75 772.019531 C 361.273438 771.296875 362.78125 770.539062 364.265625 769.742188 C 365.753906 768.949219 367.222656 768.117188 368.667969 767.25 C 370.113281 766.382812 371.539062 765.480469 372.941406 764.542969 C 374.34375 763.605469 375.722656 762.632812 377.074219 761.628906 C 378.429688 760.621094 379.757812 759.585938 381.0625 758.515625 C 382.367188 757.445312 383.644531 756.34375 384.890625 755.210938 C 386.140625 754.078125 387.363281 752.914062 388.554688 751.722656 C 389.746094 750.527344 390.910156 749.308594 392.042969 748.058594 C 393.175781 746.808594 394.273438 745.53125 395.34375 744.226562 C 396.414062 742.921875 397.453125 741.59375 398.457031 740.238281 C 399.460938 738.882812 400.429688 737.503906 401.367188 736.101562 C 402.304688 734.699219 403.207031 733.273438 404.074219 731.828125 C 404.941406 730.378906 405.769531 728.914062 406.566406 727.425781 C 407.359375 725.9375 408.117188 724.429688 408.839844 722.90625 C 409.558594 721.382812 410.242188 719.839844 410.886719 718.28125 C 411.53125 716.722656 412.136719 715.148438 412.707031 713.5625 C 413.273438 711.972656 413.800781 710.371094 414.292969 708.757812 C 414.78125 707.144531 415.230469 705.519531 415.640625 703.882812 C 416.046875 702.246094 416.417969 700.601562 416.746094 698.945312 C 417.074219 697.292969 417.363281 695.632812 417.609375 693.964844 C 417.855469 692.292969 418.0625 690.621094 418.226562 688.941406 C 418.390625 687.265625 418.515625 685.582031 418.597656 683.898438 C 418.679688 682.214844 418.722656 680.527344 418.722656 678.839844 C 418.71875 677.15625 418.675781 675.46875 418.59375 673.785156 C 418.507812 672.101562 418.382812 670.421875 418.21875 668.742188 C 418.050781 667.066406 417.84375 665.394531 417.59375 663.726562 C 417.347656 662.058594 417.054688 660.398438 416.726562 658.746094 C 416.394531 657.089844 416.027344 655.449219 415.617188 653.8125 C 415.203125 652.175781 414.753906 650.554688 414.265625 648.941406 C 413.773438 647.328125 413.242188 645.726562 412.675781 644.140625 C 412.105469 642.550781 411.5 640.980469 410.851562 639.421875 C 410.207031 637.867188 409.523438 636.324219 408.800781 634.800781 C 408.082031 633.277344 407.320312 631.773438 406.527344 630.285156 C 405.730469 628.800781 404.898438 627.332031 404.03125 625.886719 C 403.164062 624.441406 402.261719 623.019531 401.324219 621.617188 C 400.390625 620.214844 399.417969 618.835938 398.414062 617.484375 C 397.410156 616.128906 396.371094 614.800781 395.300781 613.496094 C 394.230469 612.195312 393.128906 610.917969 391.996094 609.667969 C 390.867188 608.421875 389.703125 607.199219 388.511719 606.007812 C 387.320312 604.816406 386.097656 603.652344 384.847656 602.523438 C 383.597656 601.390625 382.324219 600.289062 381.019531 599.21875 C 379.714844 598.148438 378.386719 597.113281 377.03125 596.109375 C 375.679688 595.105469 374.300781 594.132812 372.898438 593.199219 C 371.496094 592.261719 370.074219 591.359375 368.628906 590.492188 C 367.179688 589.625 365.714844 588.792969 364.226562 588 C 362.742188 587.203125 361.234375 586.445312 359.710938 585.726562 C 358.1875 585.003906 356.648438 584.320312 355.089844 583.675781 C 353.53125 583.03125 351.960938 582.421875 350.371094 581.855469 C 348.785156 581.285156 347.183594 580.757812 345.570312 580.265625 C 343.957031 579.777344 342.335938 579.328125 340.699219 578.917969 C 339.0625 578.507812 337.417969 578.136719 335.765625 577.808594 C 334.113281 577.476562 332.453125 577.1875 330.785156 576.941406 C 329.117188 576.691406 327.445312 576.484375 325.765625 576.320312 C 324.089844 576.152344 322.40625 576.027344 320.722656 575.945312 C 319.039062 575.863281 317.355469 575.820312 315.667969 575.816406 Z M 315.667969 731.476562 C 313.945312 731.476562 312.226562 731.390625 310.511719 731.222656 C 308.800781 731.054688 307.097656 730.800781 305.40625 730.464844 C 303.71875 730.128906 302.046875 729.710938 300.398438 729.210938 C 298.75 728.710938 297.132812 728.132812 295.539062 727.472656 C 293.949219 726.8125 292.394531 726.078125 290.875 725.265625 C 289.355469 724.453125 287.878906 723.570312 286.445312 722.613281 C 285.011719 721.65625 283.632812 720.632812 282.300781 719.539062 C 280.96875 718.445312 279.691406 717.289062 278.472656 716.070312 C 277.257812 714.855469 276.101562 713.578125 275.007812 712.246094 C 273.914062 710.914062 272.890625 709.535156 271.933594 708.101562 C 270.972656 706.667969 270.089844 705.195312 269.277344 703.675781 C 268.464844 702.15625 267.730469 700.601562 267.070312 699.007812 C 266.410156 697.417969 265.832031 695.796875 265.332031 694.148438 C 264.828125 692.5 264.410156 690.832031 264.074219 689.140625 C 263.738281 687.453125 263.484375 685.75 263.316406 684.035156 C 263.148438 682.320312 263.0625 680.601562 263.0625 678.878906 C 263.0625 677.15625 263.144531 675.4375 263.316406 673.722656 C 263.484375 672.007812 263.734375 670.308594 264.070312 668.617188 C 264.40625 666.925781 264.824219 665.257812 265.324219 663.609375 C 265.824219 661.960938 266.402344 660.339844 267.0625 658.75 C 267.722656 657.15625 268.457031 655.601562 269.269531 654.082031 C 270.082031 652.5625 270.964844 651.085938 271.921875 649.652344 C 272.878906 648.222656 273.902344 646.839844 274.996094 645.507812 C 276.085938 644.175781 277.242188 642.898438 278.460938 641.679688 C 279.679688 640.464844 280.953125 639.308594 282.285156 638.214844 C 283.617188 637.121094 284.996094 636.09375 286.429688 635.136719 C 287.863281 634.179688 289.335938 633.292969 290.855469 632.480469 C 292.375 631.667969 293.929688 630.933594 295.523438 630.273438 C 297.113281 629.613281 298.734375 629.035156 300.382812 628.535156 C 302.03125 628.03125 303.699219 627.613281 305.386719 627.277344 C 307.078125 626.941406 308.78125 626.6875 310.496094 626.519531 C 312.207031 626.347656 313.925781 626.265625 315.648438 626.261719 C 317.371094 626.261719 319.089844 626.347656 320.804688 626.515625 C 322.519531 626.683594 324.222656 626.933594 325.914062 627.269531 C 327.601562 627.605469 329.269531 628.023438 330.921875 628.523438 C 332.570312 629.023438 334.1875 629.601562 335.78125 630.257812 C 337.371094 630.917969 338.929688 631.652344 340.449219 632.464844 C 341.96875 633.277344 343.445312 634.160156 344.878906 635.117188 C 346.308594 636.074219 347.691406 637.097656 349.023438 638.1875 C 350.355469 639.28125 351.632812 640.4375 352.851562 641.652344 C 354.070312 642.871094 355.226562 644.144531 356.320312 645.476562 C 357.414062 646.808594 358.4375 648.191406 359.394531 649.621094 C 360.355469 651.054688 361.238281 652.53125 362.050781 654.046875 C 362.863281 655.566406 363.601562 657.121094 364.261719 658.714844 C 364.921875 660.304688 365.503906 661.925781 366.003906 663.574219 C 366.503906 665.222656 366.921875 666.890625 367.261719 668.578125 C 367.597656 670.269531 367.851562 671.972656 368.019531 673.683594 C 368.191406 675.398438 368.273438 677.117188 368.277344 678.839844 C 368.273438 680.5625 368.191406 682.28125 368.019531 683.996094 C 367.851562 685.710938 367.597656 687.414062 367.261719 689.105469 C 366.925781 690.792969 366.503906 692.464844 366.003906 694.113281 C 365.503906 695.761719 364.925781 697.382812 364.265625 698.972656 C 363.605469 700.5625 362.867188 702.121094 362.058594 703.640625 C 361.246094 705.160156 360.359375 706.636719 359.402344 708.066406 C 358.445312 709.5 357.421875 710.882812 356.328125 712.214844 C 355.234375 713.546875 354.078125 714.824219 352.859375 716.042969 C 351.644531 717.261719 350.367188 718.417969 349.035156 719.507812 C 347.707031 720.601562 346.324219 721.628906 344.890625 722.585938 C 343.460938 723.546875 341.984375 724.429688 340.464844 725.242188 C 338.945312 726.058594 337.390625 726.792969 335.796875 727.453125 C 334.207031 728.113281 332.585938 728.695312 330.9375 729.195312 C 329.289062 729.699219 327.621094 730.117188 325.933594 730.457031 C 324.242188 730.792969 322.539062 731.046875 320.824219 731.21875 C 319.109375 731.386719 317.390625 731.476562 315.667969 731.476562 Z M 315.667969 731.476562 " fill-opacity="1" fill-rule="evenodd"/><path fill="#ffffff" d="M 602.886719 575.816406 C 601.203125 575.816406 599.515625 575.859375 597.832031 575.941406 C 596.148438 576.023438 594.464844 576.148438 592.785156 576.316406 C 591.109375 576.480469 589.433594 576.6875 587.765625 576.933594 C 586.097656 577.179688 584.4375 577.46875 582.78125 577.796875 C 581.128906 578.128906 579.484375 578.496094 577.847656 578.90625 C 576.210938 579.316406 574.585938 579.765625 572.972656 580.257812 C 571.359375 580.746094 569.757812 581.273438 568.167969 581.84375 C 566.582031 582.410156 565.007812 583.019531 563.449219 583.664062 C 561.890625 584.308594 560.351562 584.992188 558.824219 585.714844 C 557.300781 586.433594 555.792969 587.191406 554.308594 587.988281 C 552.820312 588.78125 551.351562 589.613281 549.90625 590.480469 C 548.460938 591.347656 547.035156 592.25 545.632812 593.1875 C 544.230469 594.125 542.851562 595.09375 541.496094 596.101562 C 540.140625 597.105469 538.8125 598.140625 537.507812 599.210938 C 536.207031 600.28125 534.929688 601.382812 533.679688 602.515625 C 532.429688 603.648438 531.207031 604.8125 530.015625 606.003906 C 528.824219 607.199219 527.660156 608.417969 526.527344 609.667969 C 525.394531 610.917969 524.292969 612.195312 523.222656 613.5 C 522.15625 614.800781 521.117188 616.132812 520.113281 617.488281 C 519.109375 618.839844 518.136719 620.21875 517.199219 621.621094 C 516.261719 623.023438 515.359375 624.449219 514.496094 625.894531 C 513.628906 627.34375 512.796875 628.808594 512 630.296875 C 511.207031 631.785156 510.449219 633.292969 509.726562 634.816406 C 509.007812 636.339844 508.324219 637.882812 507.679688 639.441406 C 507.03125 641 506.425781 642.570312 505.859375 644.160156 C 505.289062 645.746094 504.761719 647.347656 504.269531 648.964844 C 503.78125 650.578125 503.332031 652.203125 502.921875 653.839844 C 502.511719 655.472656 502.144531 657.121094 501.816406 658.773438 C 501.484375 660.429688 501.199219 662.089844 500.949219 663.757812 C 500.703125 665.425781 500.496094 667.097656 500.332031 668.777344 C 500.167969 670.457031 500.042969 672.136719 499.960938 673.824219 C 499.878906 675.507812 499.835938 677.191406 499.835938 678.878906 C 499.835938 680.566406 499.878906 682.25 499.960938 683.9375 C 500.042969 685.621094 500.167969 687.300781 500.332031 688.980469 C 500.5 690.660156 500.707031 692.332031 500.953125 694 C 501.199219 695.667969 501.488281 697.332031 501.820312 698.984375 C 502.148438 700.640625 502.515625 702.285156 502.925781 703.921875 C 503.335938 705.554688 503.785156 707.179688 504.277344 708.796875 C 504.765625 710.410156 505.296875 712.011719 505.863281 713.597656 C 506.433594 715.1875 507.039062 716.757812 507.683594 718.316406 C 508.332031 719.875 509.015625 721.417969 509.734375 722.941406 C 510.457031 724.464844 511.214844 725.972656 512.011719 727.460938 C 512.804688 728.945312 513.636719 730.414062 514.503906 731.859375 C 515.371094 733.304688 516.273438 734.730469 517.210938 736.132812 C 518.148438 737.535156 519.117188 738.914062 520.125 740.269531 C 521.128906 741.621094 522.167969 742.953125 523.238281 744.253906 C 524.308594 745.558594 525.410156 746.835938 526.539062 748.085938 C 527.675781 749.335938 528.835938 750.554688 530.03125 751.75 C 531.222656 752.941406 532.445312 754.101562 533.695312 755.234375 C 534.941406 756.367188 536.21875 757.46875 537.523438 758.539062 C 538.828125 759.609375 540.15625 760.644531 541.511719 761.652344 C 542.867188 762.65625 544.246094 763.625 545.648438 764.5625 C 547.050781 765.5 548.476562 766.402344 549.921875 767.269531 C 551.367188 768.136719 552.835938 768.964844 554.324219 769.761719 C 555.8125 770.554688 557.316406 771.3125 558.84375 772.035156 C 560.367188 772.753906 561.910156 773.4375 563.46875 774.082031 C 565.027344 774.730469 566.597656 775.335938 568.1875 775.902344 C 569.773438 776.472656 571.375 777 572.988281 777.488281 C 574.605469 777.976562 576.230469 778.429688 577.867188 778.835938 C 579.5 779.246094 581.148438 779.617188 582.800781 779.945312 C 584.457031 780.273438 586.117188 780.5625 587.785156 780.808594 C 589.453125 781.054688 591.128906 781.261719 592.804688 781.425781 C 594.484375 781.59375 596.164062 781.714844 597.851562 781.796875 C 599.535156 781.878906 601.21875 781.921875 602.90625 781.921875 C 604.59375 781.921875 606.277344 781.878906 607.964844 781.796875 C 609.648438 781.714844 611.328125 781.589844 613.007812 781.421875 C 614.6875 781.257812 616.359375 781.050781 618.027344 780.804688 C 619.695312 780.554688 621.359375 780.265625 623.011719 779.9375 C 624.667969 779.609375 626.3125 779.238281 627.949219 778.828125 C 629.582031 778.417969 631.207031 777.96875 632.820312 777.476562 C 634.4375 776.988281 636.035156 776.457031 637.625 775.890625 C 639.210938 775.320312 640.785156 774.714844 642.34375 774.070312 C 643.902344 773.421875 645.441406 772.738281 646.96875 772.019531 C 648.492188 771.296875 650 770.539062 651.484375 769.742188 C 652.972656 768.949219 654.441406 768.117188 655.886719 767.25 C 657.332031 766.382812 658.757812 765.480469 660.160156 764.542969 C 661.5625 763.605469 662.941406 762.632812 664.292969 761.628906 C 665.648438 760.621094 666.976562 759.585938 668.28125 758.515625 C 669.585938 757.445312 670.859375 756.34375 672.109375 755.210938 C 673.359375 754.078125 674.582031 752.914062 675.773438 751.722656 C 676.964844 750.527344 678.128906 749.308594 679.261719 748.058594 C 680.394531 746.808594 681.492188 745.53125 682.5625 744.226562 C 683.632812 742.921875 684.671875 741.59375 685.675781 740.238281 C 686.679688 738.882812 687.648438 737.503906 688.585938 736.101562 C 689.523438 734.699219 690.425781 733.273438 691.292969 731.828125 C 692.15625 730.378906 692.988281 728.914062 693.785156 727.425781 C 694.578125 725.9375 695.335938 724.429688 696.054688 722.90625 C 696.777344 721.382812 697.460938 719.839844 698.105469 718.28125 C 698.75 716.722656 699.355469 715.148438 699.925781 713.5625 C 700.492188 711.972656 701.019531 710.371094 701.511719 708.757812 C 702 707.144531 702.449219 705.519531 702.859375 703.882812 C 703.265625 702.246094 703.636719 700.601562 703.964844 698.945312 C 704.292969 697.292969 704.582031 695.632812 704.828125 693.964844 C 705.074219 692.292969 705.28125 690.621094 705.445312 688.941406 C 705.609375 687.265625 705.734375 685.582031 705.816406 683.898438 C 705.898438 682.214844 705.941406 680.527344 705.9375 678.839844 C 705.9375 677.15625 705.894531 675.46875 705.8125 673.785156 C 705.730469 672.101562 705.605469 670.421875 705.4375 668.742188 C 705.273438 667.066406 705.066406 665.390625 704.816406 663.726562 C 704.566406 662.058594 704.28125 660.394531 703.949219 658.742188 C 703.621094 657.089844 703.25 655.445312 702.839844 653.808594 C 702.429688 652.175781 701.980469 650.550781 701.488281 648.9375 C 701 647.324219 700.46875 645.722656 699.902344 644.136719 C 699.332031 642.546875 698.726562 640.976562 698.078125 639.417969 C 697.433594 637.859375 696.75 636.320312 696.027344 634.796875 C 695.308594 633.273438 694.546875 631.765625 693.753906 630.28125 C 692.957031 628.792969 692.125 627.328125 691.257812 625.878906 C 690.390625 624.433594 689.492188 623.011719 688.554688 621.609375 C 687.617188 620.207031 686.644531 618.828125 685.640625 617.476562 C 684.636719 616.121094 683.597656 614.792969 682.527344 613.488281 C 681.457031 612.1875 680.359375 610.910156 679.226562 609.660156 C 678.09375 608.414062 676.929688 607.191406 675.738281 606 C 674.546875 604.808594 673.324219 603.644531 672.074219 602.511719 C 670.824219 601.382812 669.550781 600.28125 668.246094 599.210938 C 666.941406 598.140625 665.613281 597.105469 664.257812 596.101562 C 662.90625 595.09375 661.527344 594.125 660.125 593.1875 C 658.722656 592.25 657.296875 591.351562 655.851562 590.484375 C 654.40625 589.617188 652.9375 588.785156 651.453125 587.992188 C 649.964844 587.195312 648.460938 586.4375 646.9375 585.71875 C 645.410156 584.996094 643.871094 584.3125 642.3125 583.667969 C 640.753906 583.023438 639.183594 582.414062 637.59375 581.847656 C 636.007812 581.277344 634.40625 580.75 632.792969 580.261719 C 631.179688 579.769531 629.554688 579.320312 627.921875 578.910156 C 626.285156 578.5 624.640625 578.132812 622.988281 577.800781 C 621.332031 577.472656 619.671875 577.183594 618.003906 576.9375 C 616.335938 576.6875 614.664062 576.484375 612.984375 576.316406 C 611.308594 576.152344 609.628906 576.027344 607.941406 575.945312 C 606.257812 575.859375 604.574219 575.820312 602.886719 575.816406 Z M 602.886719 731.476562 C 601.164062 731.476562 599.445312 731.390625 597.730469 731.222656 C 596.019531 731.054688 594.316406 730.800781 592.625 730.464844 C 590.9375 730.128906 589.265625 729.710938 587.617188 729.210938 C 585.96875 728.710938 584.351562 728.132812 582.757812 727.472656 C 581.167969 726.8125 579.609375 726.078125 578.09375 725.265625 C 576.574219 724.453125 575.097656 723.570312 573.664062 722.613281 C 572.230469 721.65625 570.847656 720.632812 569.519531 719.539062 C 568.1875 718.445312 566.910156 717.289062 565.691406 716.070312 C 564.472656 714.855469 563.320312 713.578125 562.226562 712.246094 C 561.132812 710.914062 560.109375 709.535156 559.148438 708.101562 C 558.191406 706.667969 557.308594 705.195312 556.496094 703.675781 C 555.683594 702.15625 554.949219 700.601562 554.289062 699.007812 C 553.628906 697.417969 553.050781 695.796875 552.546875 694.148438 C 552.046875 692.5 551.628906 690.832031 551.292969 689.140625 C 550.957031 687.453125 550.703125 685.75 550.535156 684.035156 C 550.367188 682.320312 550.28125 680.601562 550.28125 678.878906 C 550.28125 677.15625 550.363281 675.4375 550.535156 673.722656 C 550.703125 672.007812 550.953125 670.308594 551.289062 668.617188 C 551.625 666.925781 552.042969 665.257812 552.542969 663.609375 C 553.042969 661.960938 553.621094 660.339844 554.28125 658.75 C 554.941406 657.15625 555.675781 655.601562 556.488281 654.082031 C 557.296875 652.5625 558.183594 651.085938 559.140625 649.652344 C 560.097656 648.222656 561.121094 646.839844 562.214844 645.507812 C 563.304688 644.175781 564.460938 642.898438 565.679688 641.679688 C 566.898438 640.464844 568.171875 639.308594 569.503906 638.214844 C 570.835938 637.121094 572.214844 636.09375 573.648438 635.136719 C 575.082031 634.179688 576.554688 633.296875 578.074219 632.480469 C 579.59375 631.671875 581.148438 630.933594 582.742188 630.273438 C 584.332031 629.613281 585.953125 629.035156 587.601562 628.535156 C 589.25 628.03125 590.917969 627.613281 592.605469 627.277344 C 594.296875 626.941406 596 626.6875 597.714844 626.519531 C 599.425781 626.347656 601.144531 626.265625 602.867188 626.261719 C 604.589844 626.261719 606.308594 626.347656 608.023438 626.515625 C 609.738281 626.683594 611.441406 626.933594 613.132812 627.269531 C 614.820312 627.605469 616.488281 628.023438 618.136719 628.523438 C 619.789062 629.023438 621.40625 629.601562 623 630.257812 C 624.589844 630.917969 626.148438 631.652344 627.667969 632.464844 C 629.1875 633.277344 630.664062 634.160156 632.09375 635.117188 C 633.527344 636.074219 634.910156 637.097656 636.242188 638.1875 C 637.574219 639.28125 638.851562 640.4375 640.070312 641.652344 C 641.289062 642.871094 642.445312 644.144531 643.539062 645.476562 C 644.632812 646.808594 645.65625 648.191406 646.613281 649.621094 C 647.574219 651.054688 648.457031 652.53125 649.269531 654.046875 C 650.082031 655.566406 650.820312 657.121094 651.480469 658.714844 C 652.140625 660.304688 652.71875 661.925781 653.222656 663.574219 C 653.722656 665.222656 654.140625 666.890625 654.476562 668.578125 C 654.816406 670.269531 655.070312 671.972656 655.238281 673.683594 C 655.410156 675.398438 655.492188 677.117188 655.496094 678.839844 C 655.492188 680.5625 655.410156 682.28125 655.238281 683.996094 C 655.070312 685.710938 654.816406 687.414062 654.480469 689.105469 C 654.140625 690.792969 653.722656 692.464844 653.222656 694.113281 C 652.722656 695.761719 652.144531 697.382812 651.484375 698.972656 C 650.824219 700.5625 650.085938 702.121094 649.273438 703.640625 C 648.464844 705.160156 647.578125 706.636719 646.621094 708.066406 C 645.664062 709.5 644.640625 710.882812 643.546875 712.214844 C 642.453125 713.546875 641.296875 714.824219 640.078125 716.042969 C 638.863281 717.261719 637.585938 718.417969 636.253906 719.507812 C 634.925781 720.601562 633.542969 721.628906 632.109375 722.585938 C 630.679688 723.546875 629.203125 724.429688 627.683594 725.242188 C 626.164062 726.058594 624.609375 726.792969 623.015625 727.453125 C 621.425781 728.113281 619.804688 728.695312 618.15625 729.195312 C 616.507812 729.699219 614.839844 730.117188 613.152344 730.457031 C 611.460938 730.792969 609.757812 731.046875 608.042969 731.21875 C 606.328125 731.386719 604.609375 731.476562 602.886719 731.476562 Z M 602.886719 731.476562 " fill-opacity="1" fill-rule="evenodd"/><g clip-path="url(#c0bcfbac68)"><path fill="#ffffff" d="M 481.734375 251.953125 C 481.195312 251.960938 480.664062 251.992188 480.128906 252.054688 C 479.597656 252.113281 479.070312 252.199219 478.546875 252.3125 C 478.023438 252.425781 477.503906 252.5625 476.996094 252.726562 C 476.484375 252.886719 475.984375 253.074219 475.492188 253.289062 C 475 253.5 474.519531 253.734375 474.050781 253.996094 C 473.582031 254.253906 473.125 254.535156 472.683594 254.839844 C 472.246094 255.144531 471.820312 255.46875 471.410156 255.816406 C 471 256.160156 470.609375 256.523438 470.234375 256.910156 C 469.863281 257.292969 469.507812 257.695312 469.175781 258.113281 C 468.839844 258.53125 468.527344 258.96875 468.238281 259.417969 C 467.945312 259.867188 467.675781 260.328125 467.429688 260.804688 C 467.183594 261.28125 466.960938 261.769531 466.765625 262.265625 C 466.566406 262.761719 466.394531 263.269531 466.246094 263.785156 C 466.097656 264.300781 465.972656 264.820312 465.875 265.347656 C 465.777344 265.875 465.707031 266.402344 465.664062 266.9375 C 465.617188 267.472656 465.597656 268.007812 465.605469 268.542969 L 465.605469 334.007812 L 400.140625 334.007812 C 399.597656 334 399.058594 334.019531 398.519531 334.066406 C 397.980469 334.113281 397.445312 334.183594 396.914062 334.28125 C 396.382812 334.382812 395.855469 334.507812 395.335938 334.65625 C 394.816406 334.808594 394.308594 334.984375 393.804688 335.1875 C 393.304688 335.390625 392.8125 335.613281 392.332031 335.867188 C 391.855469 336.117188 391.386719 336.390625 390.933594 336.6875 C 390.484375 336.980469 390.046875 337.300781 389.625 337.640625 C 389.203125 337.980469 388.800781 338.339844 388.417969 338.71875 C 388.03125 339.097656 387.664062 339.496094 387.320312 339.914062 C 386.972656 340.328125 386.648438 340.761719 386.347656 341.210938 C 386.042969 341.65625 385.765625 342.121094 385.507812 342.59375 C 385.25 343.070312 385.015625 343.558594 384.808594 344.058594 C 384.601562 344.558594 384.417969 345.066406 384.257812 345.582031 C 384.097656 346.097656 383.96875 346.621094 383.859375 347.152344 C 383.753906 347.683594 383.675781 348.21875 383.621094 348.757812 C 383.566406 349.292969 383.539062 349.835938 383.539062 350.375 C 383.539062 350.914062 383.566406 351.457031 383.621094 351.992188 C 383.675781 352.53125 383.753906 353.066406 383.859375 353.597656 C 383.96875 354.128906 384.097656 354.652344 384.257812 355.167969 C 384.417969 355.683594 384.601562 356.191406 384.808594 356.691406 C 385.015625 357.191406 385.25 357.679688 385.507812 358.15625 C 385.765625 358.628906 386.042969 359.09375 386.347656 359.539062 C 386.648438 359.988281 386.972656 360.421875 387.320312 360.835938 C 387.664062 361.253906 388.03125 361.652344 388.417969 362.03125 C 388.800781 362.410156 389.203125 362.769531 389.625 363.109375 C 390.046875 363.449219 390.484375 363.769531 390.933594 364.066406 C 391.386719 364.359375 391.855469 364.632812 392.332031 364.882812 C 392.8125 365.136719 393.304688 365.359375 393.804688 365.5625 C 394.308594 365.765625 394.816406 365.941406 395.335938 366.09375 C 395.855469 366.242188 396.382812 366.367188 396.914062 366.46875 C 397.445312 366.566406 397.980469 366.636719 398.519531 366.683594 C 399.058594 366.730469 399.597656 366.75 400.140625 366.742188 L 465.605469 366.742188 L 465.605469 432.207031 C 465.597656 432.75 465.617188 433.289062 465.664062 433.828125 C 465.710938 434.367188 465.78125 434.902344 465.878906 435.433594 C 465.980469 435.964844 466.105469 436.492188 466.253906 437.011719 C 466.40625 437.53125 466.582031 438.039062 466.785156 438.542969 C 466.988281 439.042969 467.210938 439.535156 467.460938 440.015625 C 467.714844 440.492188 467.988281 440.960938 468.28125 441.414062 C 468.578125 441.863281 468.898438 442.300781 469.238281 442.722656 C 469.578125 443.144531 469.9375 443.546875 470.316406 443.929688 C 470.695312 444.316406 471.09375 444.679688 471.511719 445.027344 C 471.925781 445.375 472.359375 445.699219 472.808594 446 C 473.253906 446.304688 473.71875 446.582031 474.191406 446.839844 C 474.667969 447.097656 475.15625 447.332031 475.65625 447.539062 C 476.15625 447.746094 476.664062 447.929688 477.179688 448.089844 C 477.695312 448.25 478.21875 448.378906 478.75 448.488281 C 479.28125 448.59375 479.816406 448.671875 480.355469 448.726562 C 480.890625 448.78125 481.433594 448.808594 481.972656 448.808594 C 482.511719 448.808594 483.054688 448.78125 483.589844 448.726562 C 484.128906 448.671875 484.664062 448.59375 485.195312 448.488281 C 485.722656 448.378906 486.25 448.25 486.765625 448.089844 C 487.28125 447.929688 487.789062 447.746094 488.289062 447.539062 C 488.789062 447.332031 489.277344 447.097656 489.753906 446.839844 C 490.226562 446.582031 490.691406 446.304688 491.136719 446 C 491.585938 445.699219 492.019531 445.375 492.433594 445.027344 C 492.851562 444.679688 493.25 444.316406 493.628906 443.929688 C 494.007812 443.546875 494.367188 443.144531 494.707031 442.722656 C 495.046875 442.300781 495.367188 441.863281 495.660156 441.414062 C 495.957031 440.960938 496.230469 440.492188 496.480469 440.015625 C 496.734375 439.535156 496.957031 439.042969 497.160156 438.542969 C 497.363281 438.039062 497.539062 437.53125 497.691406 437.011719 C 497.839844 436.492188 497.964844 435.964844 498.066406 435.433594 C 498.164062 434.902344 498.234375 434.367188 498.28125 433.828125 C 498.328125 433.289062 498.347656 432.75 498.339844 432.207031 L 498.339844 366.742188 L 563.804688 366.742188 C 564.347656 366.75 564.886719 366.730469 565.425781 366.683594 C 565.964844 366.636719 566.5 366.566406 567.03125 366.46875 C 567.5625 366.367188 568.089844 366.242188 568.609375 366.09375 C 569.128906 365.941406 569.636719 365.765625 570.140625 365.5625 C 570.640625 365.359375 571.132812 365.136719 571.613281 364.882812 C 572.089844 364.632812 572.558594 364.359375 573.007812 364.0625 C 573.460938 363.769531 573.898438 363.449219 574.320312 363.109375 C 574.742188 362.769531 575.144531 362.410156 575.527344 362.03125 C 575.914062 361.652344 576.277344 361.253906 576.625 360.835938 C 576.96875 360.421875 577.296875 359.988281 577.597656 359.539062 C 577.902344 359.09375 578.179688 358.628906 578.4375 358.15625 C 578.695312 357.679688 578.929688 357.191406 579.136719 356.691406 C 579.34375 356.191406 579.527344 355.683594 579.6875 355.167969 C 579.847656 354.652344 579.976562 354.128906 580.085938 353.597656 C 580.191406 353.066406 580.269531 352.53125 580.324219 351.992188 C 580.378906 351.457031 580.40625 350.914062 580.40625 350.375 C 580.40625 349.835938 580.378906 349.292969 580.324219 348.757812 C 580.269531 348.21875 580.191406 347.683594 580.085938 347.152344 C 579.976562 346.621094 579.84375 346.097656 579.6875 345.582031 C 579.527344 345.066406 579.34375 344.558594 579.136719 344.058594 C 578.929688 343.558594 578.695312 343.070312 578.4375 342.59375 C 578.179688 342.121094 577.902344 341.65625 577.597656 341.210938 C 577.296875 340.761719 576.96875 340.328125 576.625 339.914062 C 576.277344 339.496094 575.914062 339.097656 575.527344 338.71875 C 575.144531 338.339844 574.742188 337.980469 574.320312 337.640625 C 573.898438 337.300781 573.460938 336.980469 573.007812 336.6875 C 572.558594 336.390625 572.089844 336.117188 571.613281 335.867188 C 571.132812 335.613281 570.640625 335.390625 570.140625 335.1875 C 569.636719 334.984375 569.128906 334.808594 568.609375 334.65625 C 568.089844 334.507812 567.5625 334.382812 567.03125 334.28125 C 566.5 334.183594 565.964844 334.113281 565.425781 334.066406 C 564.886719 334.019531 564.347656 334 563.804688 334.007812 L 498.339844 334.007812 L 498.339844 268.542969 C 498.347656 267.996094 498.328125 267.453125 498.28125 266.90625 C 498.234375 266.363281 498.160156 265.824219 498.058594 265.289062 C 497.957031 264.75 497.828125 264.222656 497.675781 263.699219 C 497.519531 263.175781 497.339844 262.660156 497.136719 262.15625 C 496.929688 261.648438 496.699219 261.15625 496.445312 260.671875 C 496.191406 260.191406 495.910156 259.722656 495.609375 259.265625 C 495.308594 258.8125 494.984375 258.375 494.636719 257.949219 C 494.292969 257.527344 493.925781 257.125 493.539062 256.738281 C 493.15625 256.351562 492.75 255.988281 492.328125 255.640625 C 491.90625 255.296875 491.464844 254.972656 491.011719 254.671875 C 490.554688 254.371094 490.085938 254.09375 489.605469 253.839844 C 489.121094 253.585938 488.628906 253.355469 488.121094 253.148438 C 487.617188 252.945312 487.101562 252.765625 486.578125 252.613281 C 486.054688 252.457031 485.523438 252.332031 484.988281 252.230469 C 484.449219 252.128906 483.910156 252.054688 483.367188 252.007812 C 482.824219 251.964844 482.277344 251.945312 481.734375 251.953125 Z M 481.734375 251.953125 " fill-opacity="1" fill-rule="nonzero"/></g></svg>