<svg xmlns="http://www.w3.org/2000/svg" xmlns:xlink="http://www.w3.org/1999/xlink" width="250" zoomAndPan="magnify" viewBox="0 0 187.5 37.5" height="50" preserveAspectRatio="xMidYMid meet" version="1.0"><defs><clipPath id="74d1f747a6"><path d="M 92.445312 6.613281 L 135.761719 6.613281 L 135.761719 30.300781 L 92.445312 30.300781 Z M 92.445312 6.613281 " clip-rule="nonzero"/></clipPath><clipPath id="fc65738650"><path d="M 96.976562 6.707031 L 131.308594 6.707031 C 132.484375 6.707031 133.613281 7.175781 134.445312 8.007812 C 135.28125 8.839844 135.746094 9.96875 135.746094 11.148438 L 135.746094 25.859375 C 135.746094 27.035156 135.28125 28.167969 134.445312 29 C 133.613281 29.832031 132.484375 30.300781 131.308594 30.300781 L 96.976562 30.300781 C 95.800781 30.300781 94.671875 29.832031 93.835938 29 C 93.003906 28.167969 92.539062 27.035156 92.539062 25.859375 L 92.539062 11.148438 C 92.539062 9.96875 93.003906 8.839844 93.835938 8.007812 C 94.671875 7.175781 95.800781 6.707031 96.976562 6.707031 Z M 96.976562 6.707031 " clip-rule="nonzero"/></clipPath><clipPath id="9d78058893"><path d="M 139.015625 6.613281 L 182.332031 6.613281 L 182.332031 30.300781 L 139.015625 30.300781 Z M 139.015625 6.613281 " clip-rule="nonzero"/></clipPath><clipPath id="dfd4630d56"><path d="M 143.550781 6.707031 L 177.878906 6.707031 C 179.054688 6.707031 180.1875 7.175781 181.019531 8.007812 C 181.851562 8.839844 182.320312 9.96875 182.320312 11.148438 L 182.320312 25.859375 C 182.320312 27.035156 181.851562 28.167969 181.019531 29 C 180.1875 29.832031 179.054688 30.300781 177.878906 30.300781 L 143.550781 30.300781 C 142.371094 30.300781 141.242188 29.832031 140.410156 29 C 139.578125 28.167969 139.109375 27.035156 139.109375 25.859375 L 139.109375 11.148438 C 139.109375 9.96875 139.578125 8.839844 140.410156 8.007812 C 141.242188 7.175781 142.371094 6.707031 143.550781 6.707031 Z M 143.550781 6.707031 " clip-rule="nonzero"/></clipPath><clipPath id="eb05f2d645"><path d="M 96.699219 12.949219 L 131.484375 12.949219 L 131.484375 24.050781 L 96.699219 24.050781 Z M 96.699219 12.949219 " clip-rule="nonzero"/></clipPath><clipPath id="94e6b21c5c"><path d="M 148.921875 11.222656 L 161 11.222656 L 161 26.027344 L 148.921875 26.027344 Z M 148.921875 11.222656 " clip-rule="nonzero"/></clipPath><clipPath id="488f6ded41"><path d="M 160 11.222656 L 172.605469 11.222656 L 172.605469 26.027344 L 160 26.027344 Z M 160 11.222656 " clip-rule="nonzero"/></clipPath><clipPath id="064b6699b8"><path d="M 171 22 L 172.605469 22 L 172.605469 24 L 171 24 Z M 171 22 " clip-rule="nonzero"/></clipPath><clipPath id="ef698c57d2"><path d="M 4.59375 6.613281 L 89.566406 6.613281 L 89.566406 30.300781 L 4.59375 30.300781 Z M 4.59375 6.613281 " clip-rule="nonzero"/></clipPath><clipPath id="cc012db6e0"><path d="M 9.128906 6.707031 L 85.09375 6.707031 C 86.269531 6.707031 87.398438 7.175781 88.230469 8.007812 C 89.066406 8.839844 89.53125 9.96875 89.53125 11.148438 L 89.53125 25.859375 C 89.53125 27.035156 89.066406 28.167969 88.230469 29 C 87.398438 29.832031 86.269531 30.300781 85.09375 30.300781 L 9.128906 30.300781 C 7.949219 30.300781 6.820312 29.832031 5.988281 29 C 5.15625 28.167969 4.6875 27.035156 4.6875 25.859375 L 4.6875 11.148438 C 4.6875 9.96875 5.15625 8.839844 5.988281 8.007812 C 6.820312 7.175781 7.949219 6.707031 9.128906 6.707031 Z M 9.128906 6.707031 " clip-rule="nonzero"/></clipPath><clipPath id="086d986d5c"><path d="M 29 13.789062 L 84.679688 13.789062 L 84.679688 24.152344 L 29 24.152344 Z M 29 13.789062 " clip-rule="nonzero"/></clipPath><clipPath id="97a12a6282"><path d="M 9.925781 13.789062 L 20 13.789062 L 20 22 L 9.925781 22 Z M 9.925781 13.789062 " clip-rule="nonzero"/></clipPath><clipPath id="c2b0cc8c05"><path d="M 16 13.789062 L 24 13.789062 L 24 22 L 16 22 Z M 16 13.789062 " clip-rule="nonzero"/></clipPath><clipPath id="5d94487849"><path d="M 20 13.789062 L 28 13.789062 L 28 22 L 20 22 Z M 20 13.789062 " clip-rule="nonzero"/></clipPath></defs><g clip-path="url(#74d1f747a6)"><g clip-path="url(#fc65738650)"><path fill="#ffffff" d="M 92.539062 6.707031 L 135.761719 6.707031 L 135.761719 30.300781 L 92.539062 30.300781 Z M 92.539062 6.707031 " fill-opacity="1" fill-rule="nonzero"/></g></g><g clip-path="url(#9d78058893)"><g clip-path="url(#dfd4630d56)"><path fill="#ffffff" d="M 139.109375 6.707031 L 182.332031 6.707031 L 182.332031 30.300781 L 139.109375 30.300781 Z M 139.109375 6.707031 " fill-opacity="1" fill-rule="nonzero"/></g></g><g clip-path="url(#eb05f2d645)"><path fill="#1434cb" d="M 119.351562 12.949219 C 116.890625 12.949219 114.679688 14.214844 114.679688 16.539062 C 114.679688 19.21875 118.582031 19.398438 118.582031 20.730469 C 118.582031 21.292969 117.921875 21.804688 116.8125 21.804688 C 115.222656 21.804688 114.03125 21.097656 114.03125 21.097656 L 113.53125 23.449219 C 113.53125 23.449219 114.890625 24.050781 116.71875 24.050781 C 119.417969 24.050781 121.535156 22.730469 121.535156 20.355469 C 121.535156 17.53125 117.617188 17.347656 117.617188 16.109375 C 117.617188 15.664062 118.160156 15.179688 119.273438 15.179688 C 120.527344 15.179688 121.558594 15.691406 121.558594 15.691406 L 122.0625 13.417969 C 122.050781 13.417969 120.925781 12.949219 119.351562 12.949219 Z M 96.808594 13.117188 L 96.742188 13.457031 C 96.742188 13.457031 97.773438 13.640625 98.710938 14.019531 C 99.917969 14.449219 99.996094 14.699219 100.207031 15.46875 L 102.417969 23.867188 L 105.378906 23.867188 L 109.917969 13.117188 L 106.96875 13.117188 L 104.042969 20.433594 L 102.851562 14.226562 C 102.746094 13.523438 102.191406 13.117188 101.503906 13.117188 C 101.503906 13.117188 96.808594 13.117188 96.808594 13.117188 Z M 111.109375 13.117188 L 108.792969 23.867188 L 111.613281 23.867188 L 113.914062 13.117188 Z M 126.800781 13.117188 C 126.125 13.117188 125.765625 13.46875 125.503906 14.097656 L 121.375 23.867188 L 124.324219 23.867188 L 124.894531 22.234375 L 128.492188 22.234375 L 128.835938 23.867188 L 131.441406 23.867188 L 129.179688 13.117188 Z M 127.183594 16.03125 L 128.054688 20.066406 L 125.714844 20.066406 Z M 127.183594 16.03125 " fill-opacity="1" fill-rule="nonzero"/></g><path fill="#ff5f00" d="M 157.5625 12.804688 L 163.960938 12.804688 L 163.960938 24.441406 L 157.5625 24.441406 Z M 157.5625 12.804688 " fill-opacity="1" fill-rule="nonzero"/><g clip-path="url(#94e6b21c5c)"><path fill="#eb001b" d="M 157.96875 18.625 C 157.96875 16.363281 159.003906 14.203125 160.753906 12.804688 C 157.582031 10.277344 152.992188 10.832031 150.496094 14.058594 C 147.996094 17.269531 148.546875 21.914062 151.734375 24.441406 C 154.394531 26.558594 158.113281 26.558594 160.773438 24.441406 C 159.003906 23.042969 157.96875 20.886719 157.96875 18.625 Z M 157.96875 18.625 " fill-opacity="1" fill-rule="nonzero"/></g><g clip-path="url(#488f6ded41)"><path fill="#f79e1b" d="M 172.59375 18.625 C 172.59375 22.714844 169.324219 26.027344 165.28125 26.027344 C 163.636719 26.027344 162.050781 25.472656 160.773438 24.441406 C 163.941406 21.914062 164.488281 17.269531 161.992188 14.039062 C 161.625 13.585938 161.21875 13.15625 160.773438 12.804688 C 163.941406 10.277344 168.550781 10.832031 171.03125 14.058594 C 172.046875 15.355469 172.59375 16.960938 172.59375 18.625 Z M 172.59375 18.625 " fill-opacity="1" fill-rule="nonzero"/></g><g clip-path="url(#064b6699b8)"><path fill="#f79e1b" d="M 171.902344 23.210938 L 171.902344 22.960938 L 172.003906 22.960938 L 172.003906 22.921875 L 171.761719 22.921875 L 171.761719 22.960938 L 171.863281 22.960938 L 171.863281 23.210938 Z M 172.371094 23.210938 L 172.371094 22.921875 L 172.289062 22.921875 L 172.207031 23.128906 L 172.125 22.921875 L 172.046875 22.921875 L 172.046875 23.210938 L 172.105469 23.210938 L 172.105469 22.984375 L 172.1875 23.167969 L 172.25 23.167969 L 172.328125 22.984375 L 172.328125 23.210938 Z M 172.371094 23.210938 " fill-opacity="1" fill-rule="nonzero"/></g><g clip-path="url(#ef698c57d2)"><g clip-path="url(#cc012db6e0)"><path fill="#ffffff" d="M 4.6875 6.707031 L 89.566406 6.707031 L 89.566406 30.300781 L 4.6875 30.300781 Z M 4.6875 6.707031 " fill-opacity="1" fill-rule="nonzero"/></g></g><g clip-path="url(#086d986d5c)"><path fill="#212121" d="M 33.335938 21.855469 C 32.660156 21.871094 31.996094 21.703125 31.410156 21.363281 C 30.863281 21.039062 30.417969 20.5625 30.132812 19.992188 C 29.820312 19.351562 29.664062 18.648438 29.683594 17.933594 C 29.667969 17.203125 29.828125 16.484375 30.152344 15.828125 C 30.453125 15.230469 30.921875 14.734375 31.503906 14.398438 C 32.148438 14.039062 32.875 13.859375 33.613281 13.878906 C 34.425781 13.847656 35.230469 14.082031 35.902344 14.542969 C 36.511719 14.980469 36.929688 15.632812 37.078125 16.371094 L 35.234375 16.371094 C 35.132812 16.070312 34.925781 15.816406 34.65625 15.652344 C 34.335938 15.472656 33.96875 15.386719 33.601562 15.398438 C 33.171875 15.386719 32.746094 15.496094 32.375 15.714844 C 32.042969 15.925781 31.78125 16.234375 31.625 16.59375 C 31.445312 17.019531 31.359375 17.476562 31.371094 17.933594 C 31.355469 18.394531 31.445312 18.851562 31.625 19.277344 C 31.777344 19.625 32.035156 19.917969 32.363281 20.109375 C 32.714844 20.304688 33.109375 20.402344 33.511719 20.390625 C 34.039062 20.429688 34.558594 20.25 34.953125 19.894531 C 35.285156 19.554688 35.496094 19.121094 35.554688 18.648438 L 33.753906 18.648438 L 33.753906 17.417969 L 37.210938 17.417969 L 37.210938 21.722656 L 35.6875 21.722656 L 35.554688 20.832031 C 35.40625 21.046875 35.222656 21.238281 35.007812 21.394531 C 34.789062 21.550781 34.542969 21.671875 34.28125 21.742188 C 33.972656 21.820312 33.65625 21.859375 33.335938 21.855469 M 38.128906 21.722656 L 38.128906 14.011719 L 41.128906 14.011719 C 41.671875 13.992188 42.210938 14.101562 42.703125 14.332031 C 43.09375 14.523438 43.421875 14.828125 43.636719 15.207031 C 43.84375 15.59375 43.953125 16.023438 43.945312 16.457031 C 43.949219 16.878906 43.847656 17.289062 43.648438 17.660156 C 43.4375 18.039062 43.117188 18.351562 42.730469 18.550781 C 42.234375 18.796875 41.683594 18.917969 41.128906 18.894531 L 39.785156 18.894531 L 39.785156 21.726562 Z M 39.785156 17.570312 L 41.019531 17.570312 C 41.363281 17.601562 41.703125 17.492188 41.964844 17.265625 C 42.164062 17.046875 42.269531 16.753906 42.253906 16.457031 C 42.273438 16.160156 42.167969 15.867188 41.964844 15.648438 C 41.699219 15.429688 41.359375 15.324219 41.019531 15.355469 L 39.785156 15.355469 Z M 46.097656 21.722656 L 44.453125 16.171875 L 46.085938 16.171875 L 47.125 20.621094 L 46.816406 20.613281 L 48.007812 16.171875 L 49.828125 16.171875 L 51.019531 20.613281 L 50.710938 20.621094 L 51.738281 16.171875 L 53.371094 16.171875 L 51.738281 21.722656 L 50.015625 21.722656 L 48.746094 17.175781 L 49.089844 17.175781 L 47.808594 21.722656 Z M 56.246094 21.855469 C 55.71875 21.867188 55.199219 21.742188 54.734375 21.496094 C 54.304688 21.265625 53.953125 20.917969 53.710938 20.496094 C 53.460938 20.042969 53.332031 19.53125 53.34375 19.011719 C 53.332031 18.480469 53.457031 17.953125 53.707031 17.480469 C 53.941406 17.042969 54.292969 16.675781 54.722656 16.425781 C 55.183594 16.160156 55.707031 16.027344 56.234375 16.039062 C 56.75 16.027344 57.253906 16.152344 57.703125 16.402344 C 58.113281 16.636719 58.457031 16.976562 58.691406 17.386719 C 58.9375 17.828125 59.0625 18.324219 59.050781 18.828125 C 59.050781 18.902344 59.046875 18.984375 59.042969 19.074219 C 59.039062 19.167969 59.03125 19.265625 59.015625 19.355469 L 54.523438 19.355469 L 54.523438 18.394531 L 57.363281 18.394531 C 57.359375 18.113281 57.234375 17.84375 57.023438 17.652344 C 56.808594 17.464844 56.53125 17.363281 56.246094 17.371094 C 56.023438 17.367188 55.800781 17.425781 55.605469 17.535156 C 55.40625 17.652344 55.25 17.828125 55.148438 18.03125 C 55.023438 18.292969 54.964844 18.582031 54.976562 18.871094 L 54.976562 19.199219 C 54.972656 19.4375 55.023438 19.671875 55.125 19.882812 C 55.21875 20.078125 55.371094 20.238281 55.554688 20.347656 C 55.757812 20.460938 55.988281 20.515625 56.222656 20.511719 C 56.433594 20.519531 56.644531 20.46875 56.824219 20.363281 C 56.976562 20.269531 57.105469 20.136719 57.195312 19.984375 L 58.882812 19.984375 C 58.78125 20.335938 58.601562 20.660156 58.355469 20.933594 C 58.097656 21.222656 57.789062 21.449219 57.4375 21.605469 C 57.0625 21.777344 56.65625 21.859375 56.246094 21.855469 M 63.078125 21.855469 C 62.828125 21.859375 62.582031 21.824219 62.34375 21.757812 C 62.136719 21.695312 61.941406 21.601562 61.769531 21.476562 C 61.605469 21.359375 61.464844 21.21875 61.34375 21.0625 L 61.15625 21.722656 L 59.6875 21.722656 L 59.6875 13.792969 L 61.34375 13.792969 L 61.34375 16.898438 C 61.523438 16.644531 61.757812 16.433594 62.027344 16.28125 C 62.347656 16.109375 62.703125 16.027344 63.066406 16.039062 C 63.546875 16.03125 64.019531 16.164062 64.429688 16.417969 C 64.832031 16.675781 65.160156 17.03125 65.382812 17.453125 C 65.625 17.917969 65.746094 18.4375 65.738281 18.957031 C 65.746094 19.476562 65.625 19.988281 65.382812 20.445312 C 65.164062 20.867188 64.835938 21.226562 64.433594 21.480469 C 64.027344 21.734375 63.554688 21.863281 63.078125 21.855469 M 62.667969 20.414062 C 62.917969 20.417969 63.164062 20.351562 63.378906 20.222656 C 63.585938 20.101562 63.757812 19.925781 63.871094 19.710938 C 63.992188 19.480469 64.050781 19.21875 64.046875 18.957031 C 64.050781 18.691406 63.992188 18.429688 63.871094 18.191406 C 63.757812 17.976562 63.589844 17.792969 63.378906 17.667969 C 62.726562 17.277344 61.878906 17.484375 61.484375 18.136719 C 61.472656 18.152344 61.464844 18.171875 61.453125 18.191406 C 61.328125 18.429688 61.269531 18.691406 61.277344 18.957031 C 61.273438 19.21875 61.332031 19.480469 61.453125 19.710938 C 61.5625 19.929688 61.734375 20.109375 61.945312 20.230469 C 62.164062 20.355469 62.414062 20.417969 62.667969 20.410156 M 66.417969 24.148438 L 66.417969 16.171875 L 67.886719 16.171875 L 68.074219 16.898438 C 68.195312 16.742188 68.332031 16.597656 68.484375 16.46875 C 68.648438 16.332031 68.835938 16.226562 69.042969 16.15625 C 69.289062 16.074219 69.546875 16.035156 69.808594 16.039062 C 70.292969 16.03125 70.765625 16.164062 71.171875 16.425781 C 71.570312 16.6875 71.894531 17.046875 72.117188 17.46875 C 72.355469 17.925781 72.476562 18.441406 72.46875 18.960938 C 72.476562 19.480469 72.355469 19.992188 72.109375 20.453125 C 71.886719 20.871094 71.558594 21.226562 71.15625 21.480469 C 70.753906 21.734375 70.292969 21.863281 69.820312 21.855469 C 69.464844 21.867188 69.113281 21.792969 68.792969 21.648438 C 68.511719 21.511719 68.265625 21.3125 68.074219 21.0625 L 68.074219 24.148438 Z M 69.402344 20.414062 C 69.648438 20.417969 69.894531 20.355469 70.113281 20.230469 C 70.320312 20.109375 70.492188 19.933594 70.605469 19.71875 C 70.726562 19.484375 70.785156 19.222656 70.78125 18.957031 C 70.785156 18.695312 70.726562 18.433594 70.605469 18.199219 C 70.492188 17.984375 70.320312 17.800781 70.113281 17.675781 C 69.898438 17.546875 69.652344 17.480469 69.402344 17.484375 C 68.890625 17.46875 68.421875 17.75 68.1875 18.199219 C 68.066406 18.429688 68.003906 18.6875 68.007812 18.945312 C 68.003906 19.214844 68.066406 19.476562 68.1875 19.710938 C 68.296875 19.929688 68.46875 20.109375 68.675781 20.230469 C 68.898438 20.355469 69.148438 20.417969 69.402344 20.414062 M 74.941406 21.855469 C 74.542969 21.871094 74.148438 21.792969 73.785156 21.636719 C 73.503906 21.511719 73.269531 21.300781 73.113281 21.035156 C 72.96875 20.777344 72.894531 20.488281 72.898438 20.191406 C 72.890625 19.882812 72.976562 19.578125 73.144531 19.316406 C 73.339844 19.042969 73.609375 18.832031 73.925781 18.710938 C 74.351562 18.546875 74.804688 18.46875 75.261719 18.484375 L 76.605469 18.484375 C 76.613281 18.273438 76.582031 18.066406 76.511719 17.867188 C 76.457031 17.714844 76.351562 17.585938 76.210938 17.503906 C 76.03125 17.414062 75.835938 17.371094 75.636719 17.382812 C 75.410156 17.375 75.183594 17.429688 74.984375 17.535156 C 74.808594 17.640625 74.683594 17.820312 74.652344 18.023438 L 73.0625 18.023438 C 73.09375 17.644531 73.226562 17.285156 73.457031 16.984375 C 73.691406 16.683594 74 16.445312 74.355469 16.292969 C 74.761719 16.117188 75.203125 16.03125 75.648438 16.039062 C 76.121094 16.027344 76.589844 16.117188 77.027344 16.296875 C 77.398438 16.453125 77.714844 16.71875 77.9375 17.050781 C 78.164062 17.421875 78.277344 17.851562 78.261719 18.285156 L 78.261719 21.722656 L 76.882812 21.722656 L 76.683594 20.917969 C 76.605469 21.054688 76.507812 21.183594 76.398438 21.296875 C 76.285156 21.414062 76.152344 21.515625 76.011719 21.59375 C 75.859375 21.683594 75.695312 21.746094 75.523438 21.789062 C 75.332031 21.835938 75.136719 21.855469 74.941406 21.855469 M 75.347656 20.597656 C 75.507812 20.601562 75.667969 20.570312 75.8125 20.511719 C 75.941406 20.453125 76.058594 20.371094 76.15625 20.269531 C 76.253906 20.164062 76.332031 20.042969 76.390625 19.910156 C 76.457031 19.769531 76.503906 19.617188 76.53125 19.464844 L 76.53125 19.453125 L 75.460938 19.453125 C 75.304688 19.449219 75.148438 19.472656 75 19.523438 C 74.890625 19.5625 74.796875 19.632812 74.730469 19.726562 C 74.671875 19.820312 74.640625 19.925781 74.644531 20.035156 C 74.640625 20.148438 74.671875 20.257812 74.734375 20.351562 C 74.800781 20.4375 74.890625 20.5 74.992188 20.539062 C 75.105469 20.578125 75.226562 20.601562 75.347656 20.597656 M 79.523438 24.148438 L 80.859375 21.105469 L 80.527344 21.105469 L 78.285156 16.171875 L 80.085938 16.171875 L 81.621094 19.554688 L 82.902344 16.171875 L 84.679688 16.171875 L 81.277344 24.148438 Z M 79.523438 24.148438 " fill-opacity="1" fill-rule="nonzero"/></g><g clip-path="url(#97a12a6282)"><path fill="#00de66" d="M 13.460938 21.699219 L 9.925781 18.171875 L 11.222656 16.875 L 13.460938 19.109375 L 18.582031 13.996094 L 19.882812 15.292969 Z M 13.460938 21.699219 " fill-opacity="1" fill-rule="nonzero"/></g><g clip-path="url(#c2b0cc8c05)"><path fill="#1c6bff" d="M 16.167969 20.429688 L 22.617188 13.996094 L 23.914062 15.292969 L 17.464844 21.726562 Z M 16.167969 20.429688 " fill-opacity="1" fill-rule="nonzero"/></g><g clip-path="url(#5d94487849)"><path fill="#1c6bff" d="M 20.191406 20.429688 L 26.636719 13.996094 L 27.9375 15.292969 L 21.488281 21.726562 Z M 20.191406 20.429688 " fill-opacity="1" fill-rule="nonzero"/></g></svg>