<?xml version="1.0" standalone="no"?>
<!DOCTYPE svg PUBLIC "-//W3C//DTD SVG 20010904//EN"
 "http://www.w3.org/TR/2001/REC-SVG-20010904/DTD/svg10.dtd">
<svg version="1.0" xmlns="http://www.w3.org/2000/svg"
 width="2145.000000pt" height="1036.000000pt" viewBox="0 0 2145.000000 1036.000000"
 preserveAspectRatio="xMidYMid meet">
<metadata>
Created by potrace 1.16, written by Peter Selinger 2001-2019
</metadata>
<g transform="translate(0.000000,1036.000000) scale(0.100000,-0.100000)"
fill="#000000" stroke="none">
<path d="M15724 10336 c-43 -19 -74 -62 -74 -103 0 -43 12 -65 47 -89 25 -17
54 -20 263 -24 l235 -5 3 -27 3 -27 -398 -3 c-360 -3 -402 -5 -440 -21 -116
-51 -87 -177 47 -206 30 -7 170 -11 340 -11 l290 0 0 -30 0 -29 -419 -3 -419
-3 -26 -24 c-55 -52 -56 -150 0 -202 l26 -24 404 -3 c386 -3 404 -3 404 -21 0
-18 -18 -19 -347 -25 -387 -7 -414 -11 -450 -65 -39 -58 -23 -121 40 -160 33
-20 45 -21 461 -21 l427 0 -3 -27 c-3 -28 -3 -28 -97 -33 -92 -5 -94 -6 -122
-40 -16 -19 -30 -43 -31 -55 -3 -52 5 -82 33 -110 l30 -30 457 2 c483 3 541 7
649 54 172 74 315 247 375 455 30 105 33 333 4 434 -62 223 -213 387 -419 457
l-82 28 -590 2 c-480 2 -596 0 -621 -11z"/>
<path d="M722 10310 c-244 -64 -434 -255 -503 -505 -18 -67 -21 -97 -17 -204
4 -110 9 -137 36 -210 140 -373 541 -557 910 -418 282 106 452 353 452 657 0
154 -41 286 -129 413 -81 118 -245 228 -397 267 -102 26 -252 26 -352 0z m293
-105 c277 -58 469 -293 469 -575 0 -202 -98 -388 -259 -489 -134 -85 -294
-117 -435 -87 -183 38 -332 150 -409 307 -92 186 -92 352 0 538 114 231 380
359 634 306z"/>
<path d="M590 9621 l0 -381 60 0 60 0 0 160 0 160 61 0 c109 0 136 -23 244
-209 l61 -106 72 -3 c40 -2 72 0 72 5 0 10 -107 179 -153 240 -21 29 -52 61
-69 71 l-30 19 46 12 c51 13 118 66 143 115 21 40 21 132 1 171 -22 42 -66 81
-113 101 -32 14 -81 18 -247 22 l-208 4 0 -381z m401 253 c56 -28 71 -110 30
-158 -33 -38 -66 -46 -191 -46 l-120 0 0 108 c0 60 3 112 8 117 13 13 240 -3
273 -21z"/>
<path d="M4169 9730 c-649 -1133 -1587 -2770 -1912 -3335 -126 -220 -425 -742
-664 -1159 -239 -418 -577 -1007 -751 -1310 -599 -1046 -641 -1120 -638 -1123
2 -2 75 38 162 90 88 52 530 311 984 577 454 266 976 572 1160 680 184 108
706 414 1160 680 454 265 831 488 838 494 9 9 12 520 10 2511 l-3 2500 -346
-605z"/>
<path d="M4970 7833 l0 -2502 108 -64 c59 -35 424 -250 812 -477 388 -227 901
-528 1140 -668 971 -570 2067 -1212 2219 -1300 l44 -25 -13 24 c-13 23 -187
328 -675 1179 -677 1181 -1358 2369 -1882 3285 -240 418 -495 864 -568 990
-149 259 -715 1247 -988 1725 -99 173 -184 319 -189 325 -4 5 -8 -1117 -8
-2492z"/>
<path d="M16684 8819 c-262 -30 -475 -224 -556 -505 -30 -103 -33 -322 -5
-424 51 -192 178 -354 338 -429 145 -69 168 -71 789 -71 444 0 557 3 583 14
122 52 105 188 -28 216 -30 6 -133 10 -244 8 -141 -2 -191 0 -191 9 0 6 -3 18
-6 26 -5 14 43 16 393 19 358 3 402 5 440 22 111 48 92 174 -31 205 -26 6
-134 11 -263 11 -120 0 -255 3 -300 7 -79 6 -83 7 -83 29 l0 24 409 0 408 0
34 23 c68 46 77 153 17 209 l-30 28 -399 0 c-351 0 -400 2 -406 15 -3 9 -3 18
0 21 3 3 160 8 349 11 188 3 360 9 380 14 50 13 88 60 88 109 0 50 -43 102
-98 118 -27 8 -164 12 -446 12 l-407 0 3 23 c3 21 9 22 96 27 90 5 95 7 122
37 55 61 48 146 -14 184 -29 18 -56 19 -451 18 -231 -1 -452 -5 -491 -10z"/>
<path d="M19625 8703 c-216 -28 -417 -106 -577 -224 -94 -70 -235 -221 -308
-330 -347 -519 -520 -1407 -520 -2674 0 -1721 383 -2715 1145 -2974 141 -47
257 -65 440 -64 383 0 676 116 929 368 329 328 545 875 646 1637 57 432 80
982 62 1485 -17 453 -37 673 -94 1007 -201 1192 -721 1784 -1559 1775 -74 -1
-147 -4 -164 -6z m309 -560 c64 -23 130 -83 164 -147 l27 -51 3 -2357 2 -2357
-21 -57 c-26 -68 -90 -136 -157 -167 -68 -31 -189 -30 -254 2 -60 29 -116 85
-148 147 l-25 49 -3 2345 c-2 2575 -6 2399 58 2488 76 106 227 150 354 105z"/>
<path d="M15145 8655 c-197 -45 -359 -146 -450 -280 l-27 -40 6 80 c4 44 9
108 12 143 l6 62 -731 0 -731 0 0 -305 0 -305 145 0 145 0 0 -2520 0 -2520
-145 0 -145 0 0 -250 0 -250 875 0 875 0 0 250 0 250 -145 0 -145 0 0 2298 c0
1486 4 2326 10 2378 22 176 71 297 147 363 25 23 49 41 52 41 4 0 -4 -42 -17
-92 -33 -129 -41 -325 -17 -434 61 -278 259 -422 539 -392 278 30 456 253 515
645 17 109 14 331 -5 416 -50 224 -211 395 -429 453 -83 22 -264 27 -340 9z"/>
<path d="M9670 7535 l0 -1085 290 0 c269 0 290 1 290 18 0 9 0 353 0 764 0
411 3 754 6 763 5 13 36 15 220 15 l214 0 0 -2520 0 -2519 -127 -3 -128 -3 0
-245 0 -245 893 -3 892 -2 0 250 0 250 -135 0 -135 0 0 2520 0 2520 201 -2
200 -3 -1 -728 c0 -400 2 -750 6 -777 l7 -50 303 0 304 0 0 1085 0 1085 -1650
0 -1650 0 0 -1085z"/>
<path d="M16040 6960 l0 -250 155 0 155 0 0 -1870 0 -1870 -155 0 -155 0 0
-250 0 -250 853 2 852 3 0 245 0 245 -127 3 -128 3 0 2119 0 2120 -725 0 -725
0 0 -250z"/>
<path d="M4335 4658 c-209 -121 -598 -346 -865 -501 -267 -154 -611 -353 -765
-442 -154 -89 -397 -230 -540 -312 -143 -83 -566 -327 -940 -544 -374 -216
-715 -413 -758 -437 -42 -24 -80 -48 -83 -53 -6 -10 2280 -10 6247 0 l2465 6
-745 427 c-410 234 -1396 798 -2190 1252 -794 454 -1444 826 -1445 825 0 0
-172 -100 -381 -221z"/>
<path d="M4785 1221 c-91 -23 -148 -51 -212 -103 -94 -78 -156 -175 -189 -299
-24 -90 -24 -300 0 -389 59 -216 221 -363 447 -406 100 -20 264 -14 349 11
272 82 423 317 406 630 -9 158 -42 259 -117 357 -78 103 -194 175 -326 203
-94 20 -270 18 -358 -4z m266 -191 c110 -21 190 -83 235 -184 24 -53 28 -77
32 -180 8 -223 -46 -343 -188 -417 -39 -21 -59 -24 -155 -24 -96 0 -116 3
-153 23 -96 51 -158 134 -182 242 -19 86 -9 271 18 341 60 154 216 232 393
199z"/>
<path d="M10 1120 l0 -100 185 0 185 0 0 -495 0 -495 130 0 130 0 0 495 0 495
185 0 185 0 0 100 0 100 -500 0 -500 0 0 -100z"/>
<path d="M1670 626 l0 -596 125 0 125 0 0 250 0 250 55 0 c29 0 78 -5 107 -11
70 -15 117 -65 283 -302 l130 -186 153 0 c120 -1 152 2 146 11 -4 7 -60 92
-125 188 -126 188 -171 241 -250 294 l-50 34 44 6 c61 9 158 57 199 99 63 62
83 118 83 227 -1 83 -4 101 -28 145 -45 86 -94 128 -182 161 -44 16 -93 18
-432 22 l-383 3 0 -595z m687 375 c23 -11 49 -30 58 -44 43 -66 22 -168 -43
-209 -35 -22 -49 -23 -244 -27 l-208 -3 0 151 0 151 198 0 c172 0 202 -3 239
-19z"/>
<path d="M3427 1214 c-3 -3 -6 -271 -7 -595 l-1 -589 131 0 130 0 0 595 0 595
-123 0 c-68 0 -126 -3 -130 -6z"/>
<path d="M7260 625 l0 -595 130 0 130 0 0 260 0 260 250 0 250 0 0 -260 0
-260 125 0 125 0 0 595 0 595 -125 0 -125 0 -2 -232 -3 -233 -247 -3 -248 -2
0 235 0 235 -130 0 -130 0 0 -595z"/>
<path d="M9110 703 c-117 -285 -228 -553 -246 -595 l-33 -78 137 0 137 0 50
135 50 135 255 0 255 0 54 -135 54 -135 138 0 139 0 -19 47 c-11 27 -88 208
-171 403 -83 195 -187 442 -232 548 l-81 192 -137 0 -136 0 -214 -517z m436
16 c42 -107 78 -200 81 -206 4 -10 -33 -13 -167 -13 -160 0 -172 1 -166 18 63
178 162 418 168 408 4 -7 42 -101 84 -207z"/>
<path d="M10540 1213 c0 -4 100 -272 222 -596 l222 -587 137 0 136 0 96 253
c52 138 154 406 225 595 l130 343 -136 -3 -136 -3 -151 -427 c-82 -235 -152
-429 -155 -432 -3 -3 -76 190 -162 427 l-156 432 -136 3 c-75 1 -136 -1 -136
-5z"/>
<path d="M12330 625 l0 -595 480 0 480 0 0 100 0 100 -350 0 -350 0 0 165 0
165 315 0 315 0 0 100 0 100 -315 0 -315 0 0 130 0 130 340 0 340 0 0 100 0
100 -470 0 -470 0 0 -595z"/>
<path d="M14010 620 l0 -590 445 0 445 0 0 100 0 100 -320 0 -320 0 0 490 0
490 -125 0 -125 0 0 -590z"/>
<path d="M16715 904 c-114 -29 -187 -80 -227 -158 -16 -31 -19 -54 -16 -111 7
-150 87 -205 402 -276 71 -16 138 -37 149 -46 27 -25 19 -81 -16 -107 -23 -17
-45 -22 -120 -24 -81 -2 -97 0 -132 20 -27 15 -47 37 -60 66 l-20 42 -50 -6
c-27 -4 -83 -11 -123 -18 l-73 -11 31 -62 c71 -142 226 -211 445 -200 137 7
218 34 285 93 81 74 114 164 91 251 -30 110 -102 155 -354 218 -95 23 -184 49
-200 56 -35 16 -45 53 -22 79 33 37 148 52 224 30 38 -10 91 -56 91 -77 0 -17
10 -16 130 4 114 18 117 22 71 94 -69 109 -144 141 -346 145 -77 1 -149 0
-160 -2z"/>
<path d="M18805 887 c-21 -12 -54 -42 -72 -65 l-33 -44 0 56 0 56 -115 0 -115
0 0 -430 0 -430 120 0 120 0 0 173 c1 395 29 488 148 504 27 4 53 -1 85 -15
l46 -20 31 80 c49 128 49 123 -6 142 -70 24 -160 21 -209 -7z"/>
<path d="M20322 894 c-148 -39 -253 -138 -302 -285 -19 -55 -21 -79 -17 -169
3 -61 12 -124 21 -150 43 -117 139 -205 273 -252 92 -31 259 -32 345 0 103 37
202 123 249 214 66 129 66 298 -1 428 -50 98 -176 193 -291 219 -63 15 -215
12 -277 -5z m215 -179 c38 -11 62 -27 91 -61 50 -56 66 -117 60 -224 -8 -137
-80 -220 -199 -228 -78 -6 -138 17 -182 69 -42 49 -58 100 -58 188 0 93 15
145 58 192 67 74 133 93 230 64z"/>
<path d="M17500 145 l0 -115 120 0 120 0 0 115 0 115 -120 0 -120 0 0 -115z"/>
<path d="M19070 145 l0 -115 120 0 120 0 0 115 0 115 -120 0 -120 0 0 -115z"/>
<path d="M21130 145 l0 -115 120 0 120 0 0 115 0 115 -120 0 -120 0 0 -115z"/>
</g>
</svg>
